<svg width="512" height="512" viewBox="0 0 512 512" fill="none" xmlns="http://www.w3.org/2000/svg">
<rect width="512" height="512" rx="35" fill="black"/>
<g clip-path="url(#clip0_7_3)">
<rect width="512" height="512" rx="35" fill="black"/>
<path d="M389.049 468.844C391.002 468.518 392.955 468.518 394.908 468.844C397.187 469.495 399.465 470.146 401.744 470.797C404.023 471.448 406.301 472.099 408.58 472.75C411.184 473.401 413.626 473.564 415.904 473.238C417.206 472.913 419.322 471.936 422.252 470.309C425.182 468.681 428.111 466.565 431.041 463.961C434.296 461.682 437.226 459.078 439.83 456.148C442.434 453.544 444.225 451.266 445.201 449.312C446.178 447.685 446.992 444.918 447.643 441.012C448.294 437.431 448.619 434.827 448.619 433.199C448.294 429.618 446.503 425.875 443.248 421.969C439.993 418.388 436.412 416.435 432.506 416.109C428.274 415.784 424.693 416.923 421.764 419.527C418.834 422.457 416.067 425.061 413.463 427.34C412.812 427.991 411.673 428.967 410.045 430.27C408.417 431.897 406.627 433.362 404.674 434.664C402.721 436.292 400.93 437.757 399.303 439.059C397.675 440.361 396.373 441.012 395.396 441.012C392.141 441.663 389.537 440.523 387.584 437.594C385.956 434.99 385.794 431.246 387.096 426.363C387.747 424.085 389.212 421.48 391.49 418.551C393.769 415.947 395.559 413.505 396.861 411.227C398.489 407.971 399.791 405.042 400.768 402.438C401.744 400.159 403.372 397.88 405.65 395.602C409.231 391.695 413.788 388.603 419.322 386.324C425.182 384.046 431.041 382.581 436.9 381.93C443.085 381.279 448.945 381.767 454.479 383.395C460.012 385.022 464.57 387.789 468.15 391.695C469.127 392.672 469.941 394.299 470.592 396.578C471.568 398.857 472.382 400.973 473.033 402.926C474.986 406.832 477.102 410.738 479.381 414.645C481.985 418.551 483.613 422.457 484.264 426.363C484.589 427.991 484.589 430.107 484.264 432.711C484.264 435.641 484.426 438.408 484.752 441.012C485.077 449.801 483.938 456.474 481.334 461.031C479.055 465.914 475.637 471.611 471.08 478.121C468.801 481.376 466.36 484.794 463.756 488.375C461.477 491.956 459.199 494.56 456.92 496.188C455.292 497.49 453.339 498.303 451.061 498.629C448.782 498.954 446.829 499.605 445.201 500.582C443.248 501.884 441.458 503.512 439.83 505.465C438.528 507.418 437.063 509.046 435.436 510.348C431.855 512.626 426.809 514.579 420.299 516.207C414.114 517.835 408.743 518.974 404.186 519.625C394.745 520.927 385.143 521.253 375.377 520.602C365.937 520.276 358.124 518.648 351.939 515.719C348.684 514.091 345.917 512.138 343.639 509.859C341.36 507.581 338.43 506.116 334.85 505.465C330.292 504.814 326.386 504.651 323.131 504.977C319.876 505.302 316.783 504.814 313.854 503.512C307.343 500.582 302.135 496.676 298.229 491.793C294.322 486.91 290.09 481.702 285.533 476.168C284.882 475.191 284.882 474.052 285.533 472.75C286.184 471.773 286.998 470.96 287.975 470.309C285.696 467.379 282.929 465.263 279.674 463.961C276.744 462.659 274.14 460.706 271.861 458.102C267.63 454.195 264.863 449.312 263.561 443.453C262.258 437.594 261.282 431.246 260.631 424.41C256.399 422.457 252.33 421.155 248.424 420.504C245.494 418.225 243.215 415.458 241.588 412.203C240.286 409.273 238.821 406.344 237.193 403.414C235.566 400.81 233.775 398.206 231.822 395.602C229.869 392.997 228.242 390.068 226.939 386.812C225.963 383.883 225.149 380.628 224.498 377.047C223.847 373.466 223.033 369.723 222.057 365.816C220.104 358.004 218.476 349.703 217.174 340.914C216.197 331.799 215.058 322.848 213.756 314.059C213.105 309.827 212.617 305.758 212.291 301.852C212.291 297.62 212.291 293.714 212.291 290.133C212.942 281.995 213.919 273.857 215.221 265.719C216.523 257.255 216.36 249.117 214.732 241.305C214.407 239.677 213.756 237.724 212.779 235.445C211.803 233.167 210.663 230.888 209.361 228.609C208.059 226.331 206.594 224.378 204.967 222.75C203.665 220.797 202.363 219.658 201.061 219.332C197.154 218.03 192.597 218.193 187.389 219.82C182.506 221.122 178.274 222.587 174.693 224.215C172.415 224.866 168.997 226.168 164.439 228.121C160.208 230.074 157.441 231.865 156.139 233.492C154.511 235.771 153.697 238.375 153.697 241.305C154.023 244.234 153.535 247.327 152.232 250.582C151.581 252.861 150.442 254.814 148.814 256.441C147.187 258.069 146.048 259.697 145.396 261.324C144.745 262.952 144.583 264.579 144.908 266.207C145.559 267.835 145.722 269.462 145.396 271.09C145.396 273.043 144.908 275.159 143.932 277.438C143.281 279.391 142.63 281.669 141.979 284.273C141.002 288.831 140.351 293.714 140.025 298.922C139.7 303.805 139.212 308.525 138.561 313.082C137.584 318.29 136.445 323.336 135.143 328.219C134.166 333.102 134.003 338.31 134.654 343.844C135.305 347.75 136.77 352.145 139.049 357.027C141.653 361.91 142.63 365.328 141.979 367.281C140.676 371.188 136.933 373.466 130.748 374.117C124.563 374.443 118.704 374.443 113.17 374.117C107.311 373.466 101.288 372.815 95.1035 372.164C89.2441 371.513 83.7103 371.35 78.502 371.676C70.6895 372.001 62.877 373.303 55.0645 375.582C47.252 377.535 39.6022 379.326 32.1152 380.953C24.9538 382.581 17.4668 384.371 9.6543 386.324C1.8418 388.603 -5.64518 388.277 -12.8066 385.348C-13.4577 382.418 -13.1322 379.326 -11.8301 376.07C-10.528 372.815 -7.76107 371.513 -3.5293 372.164C0.376953 368.583 4.12044 365.165 7.70117 361.91C11.2819 358.329 14.6999 354.423 17.9551 350.191C19.2572 344.983 21.6986 339.938 25.2793 335.055C28.5345 330.172 31.1387 324.801 33.0918 318.941C34.0684 316.012 34.5566 313.082 34.5566 310.152C34.8822 306.897 35.8587 303.967 37.4863 301.363C38.7884 299.085 40.7415 297.457 43.3457 296.48C45.9499 295.504 47.903 294.039 49.2051 292.086C49.5306 288.505 48.7168 286.227 46.7637 285.25C45.1361 283.948 44.3223 282.158 44.3223 279.879C43.9967 278.251 44.6478 275.322 46.2754 271.09C47.903 266.858 49.3678 262.464 50.6699 257.906C52.9486 249.443 54.9017 241.63 56.5293 234.469C58.1569 227.307 59.6217 219.495 60.9238 211.031C61.2493 208.753 61.2493 206.311 60.9238 203.707C60.9238 201.103 61.2493 198.987 61.9004 197.359C62.877 194.104 64.8301 191.012 67.7598 188.082C70.6895 185.152 72.6426 181.897 73.6191 178.316C74.2702 175.712 74.2702 172.945 73.6191 170.016C72.9681 167.086 72.9681 164.156 73.6191 161.227C74.2702 158.622 75.084 156.507 76.0605 154.879C77.3626 153.251 78.6647 151.298 79.9668 149.02C84.1986 136.65 87.9421 123.466 91.1973 109.469C94.778 95.1458 94.778 81.7995 91.1973 69.4297C89.5697 62.5938 87.4538 56.0833 84.8496 49.8984C82.571 43.7135 79.3158 39.4818 75.084 37.2031C72.4798 35.901 69.5501 35.25 66.2949 35.25C63.3652 35.25 61.9004 33.7852 61.9004 30.8555C61.9004 28.5768 63.3652 26.7865 66.2949 25.4844C69.2246 24.1823 72.6426 23.2057 76.5488 22.5547C80.7806 21.5781 84.8496 20.9271 88.7559 20.6016C92.9876 20.276 96.2428 20.1133 98.5215 20.1133C103.079 19.7878 107.962 20.9271 113.17 23.5312C118.704 26.1354 123.912 27.4375 128.795 27.4375C133.352 27.4375 138.072 27.6003 142.955 27.9258C147.838 27.9258 152.558 28.0885 157.115 28.4141C162.324 28.7396 167.206 28.5768 171.764 27.9258C176.646 27.2747 181.692 26.9492 186.9 26.9492C195.364 26.6237 203.665 25.6471 211.803 24.0195C220.266 22.0664 228.242 21.9036 235.729 23.5312C238.333 25.8099 238.984 28.2513 237.682 30.8555C236.705 33.1341 234.915 35.5755 232.311 38.1797C229.706 40.7839 226.939 43.388 224.01 45.9922C221.08 48.5964 218.964 51.2005 217.662 53.8047C216.36 58.362 215.058 62.9193 213.756 67.4766C212.454 71.7083 210.501 75.7773 207.896 79.6836C207.245 80.6602 206.106 81.474 204.479 82.125C203.176 82.776 202.037 83.7526 201.061 85.0547C196.503 91.8906 192.597 99.3776 189.342 107.516C186.087 115.654 182.343 124.117 178.111 132.906C176.809 133.883 175.344 135.673 173.717 138.277C172.089 140.882 170.624 142.997 169.322 144.625C170.299 146.578 170.462 148.857 169.811 151.461C169.485 154.065 168.997 156.669 168.346 159.273C167.695 161.878 167.206 164.319 166.881 166.598C166.555 168.876 166.881 170.667 167.857 171.969C168.508 172.945 170.462 173.922 173.717 174.898C176.972 175.549 179.902 175.549 182.506 174.898C187.389 173.596 191.783 171.155 195.689 167.574C199.596 163.668 203.502 159.924 207.408 156.344C211.314 153.089 215.383 150.322 219.615 148.043C224.173 145.764 228.73 143.648 233.287 141.695C238.17 139.417 243.053 137.138 247.936 134.859C252.818 132.255 257.701 129.163 262.584 125.582C270.071 120.048 276.907 114.352 283.092 108.492C289.277 102.307 295.95 96.2852 303.111 90.4258C306.692 87.8216 309.785 85.3802 312.389 83.1016C314.993 80.8229 318.085 79.0326 321.666 77.7305C323.945 77.0794 326.223 77.0794 328.502 77.7305C330.781 78.056 332.734 77.8932 334.361 77.2422C336.965 75.9401 339.244 73.4987 341.197 69.918C343.15 66.3372 345.592 63.4076 348.521 61.1289C350.149 59.8268 351.614 59.013 352.916 58.6875C354.544 58.0365 356.334 56.8971 358.287 55.2695C360.891 53.6419 363.333 51.8516 365.611 49.8984C368.215 47.9453 371.145 45.9922 374.4 44.0391C377.005 42.4115 379.771 40.7839 382.701 39.1562C385.631 37.5286 388.398 35.5755 391.002 33.2969C396.536 29.3906 402.07 25.3216 407.604 21.0898C413.137 16.8581 418.183 13.2773 422.74 10.3477C424.368 9.37109 425.833 8.72005 427.135 8.39453C428.762 8.06901 430.227 7.58073 431.529 6.92969C434.785 5.30208 437.714 3.1862 440.318 0.582031C443.248 -2.02214 446.178 -4.6263 449.107 -7.23047C452.037 -9.83464 455.13 -12.1133 458.385 -14.0664C461.64 -16.3451 465.221 -17.6471 469.127 -17.9727C472.708 -18.2982 475.475 -17.8099 477.428 -16.5078C479.706 -15.2057 482.148 -14.3919 484.752 -14.0664C489.309 -8.20703 490.123 0.907552 487.193 13.2773C486.542 15.8815 486.054 18.6484 485.729 21.5781C485.403 24.1823 484.915 26.2982 484.264 27.9258C483.287 30.2044 481.497 32.9714 478.893 36.2266C476.614 39.4818 473.684 42.0859 470.104 44.0391C467.499 45.6667 464.407 47.457 460.826 49.4102C457.571 51.3633 454.641 52.6654 452.037 53.3164C450.084 53.9674 448.294 54.1302 446.666 53.8047C445.364 53.1536 443.899 52.9909 442.271 53.3164C438.365 54.6185 435.273 57.0599 432.994 60.6406C431.041 63.8958 429.413 67.151 428.111 70.4062C422.577 74.9635 416.718 78.707 410.533 81.6367C404.348 84.2409 398.326 87.3333 392.467 90.9141C385.956 94.4948 379.609 97.75 373.424 100.68C367.239 103.609 361.054 106.702 354.869 109.957C347.057 113.863 339.732 118.909 332.896 125.094C326.061 131.279 318.899 136.812 311.412 141.695C303.6 146.253 295.95 151.298 288.463 156.832C281.301 162.04 274.791 167.737 268.932 173.922C266.979 174.573 263.886 175.875 259.654 177.828C255.423 179.781 252.981 182.06 252.33 184.664C252.005 185.966 252.33 187.431 253.307 189.059C254.609 190.686 256.074 192.477 257.701 194.43C259.329 196.057 260.794 197.522 262.096 198.824C263.723 199.801 264.7 200.452 265.025 200.777C266.653 202.079 268.118 203.056 269.42 203.707C271.048 204.033 272.512 204.684 273.814 205.66C277.721 208.915 281.139 212.496 284.068 216.402C287.324 219.983 289.765 224.052 291.393 228.609C293.02 232.841 294.485 237.724 295.787 243.258C297.415 248.792 299.042 254.326 300.67 259.859C302.623 266.37 304.576 272.555 306.529 278.414C308.808 284.273 310.598 291.109 311.9 298.922C313.528 309.99 314.83 321.22 315.807 332.613C316.783 344.007 318.899 354.749 322.154 364.84C322.805 366.467 323.131 368.258 323.131 370.211C323.456 371.839 323.945 373.466 324.596 375.094C325.247 376.721 325.898 378.186 326.549 379.488C327.2 381.116 327.688 382.743 328.014 384.371C328.339 386.65 328.176 389.091 327.525 391.695C327.2 394.625 327.363 396.904 328.014 398.531C328.665 400.159 329.967 402.763 331.92 406.344C334.199 409.924 335.989 412.529 337.291 414.156C338.919 416.76 340.709 419.365 342.662 421.969C344.941 424.898 347.057 427.828 349.01 430.758C351.288 433.688 353.242 436.617 354.869 439.547C356.822 442.477 358.775 445.081 360.729 447.359C364.635 451.917 369.355 455.823 374.889 459.078C380.423 462.333 385.143 465.589 389.049 468.844Z" fill="#810808"/>
</g>
<defs>
<clipPath id="clip0_7_3">
<rect width="512" height="512" rx="35" fill="white"/>
</clipPath>
</defs>
</svg>
